<svg xmlns="http://www.w3.org/2000/svg" viewBox="0 0 64 64">
  <path fill="#00a1d6" d="M58.66,17.24h0c-1.16-1.32-2.48-2.3-3.93-2.94a12.24,12.24,0,0,0-4.79-1H14.06a12.24,12.24,0,0,0-4.79,1c-1.45.64-2.77,1.62-3.93,2.94a10.59,10.59,0,0,0-2.66,4.55,15.66,15.66,0,0,0-.68,5v10.5a15.66,15.66,0,0,0,.68,5,10.59,10.59,0,0,0,2.66,4.55c1.16,1.32,2.48,2.3,3.93,2.94a12.24,12.24,0,0,0,4.79,1H49.94a12.24,12.24,0,0,0,4.79-1c1.45-.64,2.77-1.62,3.93-2.94a10.59,10.59,0,0,0,2.66-4.55,15.66,15.66,0,0,0,.68-5V26.74a15.66,15.66,0,0,0-.68-5A10.59,10.59,0,0,0,58.66,17.24ZM23.45,37.24a2.08,2.08,0,0,1-2.08,2.08H16.08A2.08,2.08,0,0,1,14,37.24V26.76a2.08,2.08,0,0,1,2.08-2.08h5.29a2.08,2.08,0,0,1,2.08,2.08Zm26.55,0a2.08,2.08,0,0,1-2.08,2.08H42.63a2.08,2.08,0,0,1-2.08-2.08V26.76a2.08,2.08,0,0,1,2.08-2.08h5.29A2.08,2.08,0,0,1,50,26.76Z"/>
</svg>