<svg xmlns="http://www.w3.org/2000/svg" viewBox="0 0 24 24" style="display: flex; justify-content: center; align-items: center;"><path fill="#ffffff" d="M16.6 5.82s.51.5 0 0A4.278 4.278 0 0 1 19.75 4.75V8c-.875.125-1.75 0-2.625-.375a4.562 4.562 0 0 1-2.25-2.25c-.125-.25-.25-.625-.375-1v8.875A4.854 4.854 0 0 1 9.75 18c-2.625 0-4.875-2.25-4.875-4.875s2.25-4.875 4.875-4.875c.375 0 .75 0 1 .125V12c-.375-.125-.625-.125-1-.125-1.5 0-2.625 1.125-2.625 2.625S8.25 17.125 9.75 17.125s2.625-1.125 2.625-2.625V2.375h3v3.445Z"/></svg>