<svg xmlns="http://www.w3.org/2000/svg" viewBox="0 0 24 24" width="24" height="24"><path fill="currentColor" d="M8.691 2C4.768 2 1.353 4.67 1.353 8.13c0 1.94 1.028 3.614 2.71 4.784-.3.852-.778 2.24-.89 2.57-.14.408.147.403.316.294.13-.084 2.25-1.35 3.15-1.896.43.073.876.126 1.326.126h.13c-.07-.322-.106-.658-.106-1.004 0-2.93 2.894-5.31 6.464-5.31.075 0 .15.003.226.006-.798-2.986-3.913-5.2-7.662-5.2zm-1.6 2.986c.58 0 1.05.47 1.05 1.05s-.47 1.05-1.05 1.05-1.05-.47-1.05-1.05.47-1.05 1.05-1.05zm4.383 0c.58 0 1.05.47 1.05 1.05s-.47 1.05-1.05 1.05-1.05-.47-1.05-1.05.47-1.05 1.05-1.05zm3.46 2.816c-3.07 0-5.564 2.1-5.564 4.69 0 2.59 2.494 4.69 5.564 4.69.636 0 1.247-.09 1.816-.255.773.467 2.575 1.55 2.691 1.626.145.086.318.09.195-.255-.097-.283-.513-1.482-.783-2.222 1.444-1.02 2.32-2.5 2.32-4.184 0-2.59-2.494-4.69-5.564-4.69h-.001zm-2.452 2.46c.478 0 .866.388.866.866 0 .478-.388.866-.866.866-.48 0-.867-.388-.867-.866 0-.478.388-.866.867-.866zm4.905 0c.478 0 .866.388.866.866 0 .478-.388.866-.866.866-.48 0-.867-.388-.867-.866 0-.478.388-.866.867-.866z"/></svg>